<svg id="Layer_1" data-name="Layer 1" xmlns="http://www.w3.org/2000/svg" viewBox="0 0 69.05579 69.09598"><defs><style>.cls-1{fill:none;stroke:#000;stroke-miterlimit:10;stroke-width:4px;}</style></defs><circle class="cls-1" cx="34.51959" cy="34.55563" r="14"/><path d="M34.51956,0h0a2,2,0,0,1,2,2v9.01775a2,2,0,0,1-2,2h0a2,2,0,0,1-2-2V2a2,2,0,0,1,2-2Z"/><rect x="32.51959" y="56.07824" width="4" height="13.01774" rx="2"/><rect x="66.02212" y="33.50186" width="4" height="13.01156" rx="2" transform="translate(22.54237 102.57775) rotate(-90)"/><rect x="9.97788" y="33.50189" width="4" height="13.01156" rx="2" transform="translate(-33.50189 46.53355) rotate(-90)"/><path d="M24.97774,24.56415l-.4526.45285a1.82561,1.82561,0,0,1-2.56184-.188l-6.45091-6.45355a1.82772,1.82772,0,0,1-.18812-2.56305l.45261-.45286a1.82563,1.82563,0,0,1,2.56184.188l6.45091,6.45356A1.82771,1.82771,0,0,1,24.97774,24.56415Z" transform="translate(-5.4721 -5.45201)"/><path d="M54.9314,24.57816l.4526.45285a1.82561,1.82561,0,0,0,2.56184-.188l6.45091-6.45356a1.82771,1.82771,0,0,0,.18811-2.56305l-.4526-.45285a1.82561,1.82561,0,0,0-2.56184.188L55.11951,22.0151A1.82772,1.82772,0,0,0,54.9314,24.57816Z" transform="translate(-5.4721 -5.45201)"/><path d="M64.61333,64.19275l-.4526.45286a1.82563,1.82563,0,0,1-2.56184-.188L55.148,58.004a1.82772,1.82772,0,0,1-.18811-2.563l.45261-.45286a1.82561,1.82561,0,0,1,2.56183.188l6.45092,6.45356A1.82771,1.82771,0,0,1,64.61333,64.19275Z" transform="translate(-5.4721 -5.45201)"/><path d="M15.37234,64.15482l.4526.45285a1.82561,1.82561,0,0,0,2.56184-.188l6.45091-6.45355A1.82772,1.82772,0,0,0,25.0258,55.403l-.4526-.45285a1.82561,1.82561,0,0,0-2.56184.188l-6.45091,6.45356A1.82771,1.82771,0,0,0,15.37234,64.15482Z" transform="translate(-5.4721 -5.45201)"/></svg>