<svg id="Layer_1" data-name="Layer 1" xmlns="http://www.w3.org/2000/svg" viewBox="0 0 55.05906 60"><path d="M30.36518,12.0001v-.0002A1.9999,1.9999,0,0,0,28.36528,10H16.47046a4,4,0,0,0-4,4h0V66h0a4,4,0,0,0,4,4H28.36528a1.9999,1.9999,0,0,0,1.9999-1.9999v-.0002A1.9999,1.9999,0,0,0,28.36528,66H17.47047a1,1,0,0,1-1-1V15a1,1,0,0,1,1-1H28.36528A1.9999,1.9999,0,0,0,30.36518,12.0001Z" transform="translate(-12.47047 -10)"/><path d="M65.53047,37.3858l-9.8547-9.85469a1.998,1.998,0,0,0-2.82812.00252h0a1.998,1.998,0,0,0,.00189,2.82246L60.578,38.09147a.1.1,0,0,1-.07075.17068H31.20692a2,2,0,0,0-2,2h0a2,2,0,0,0,2,2H60.41264a.1.1,0,0,1,.07071.17071l-7.63288,7.63293a1.99756,1.99756,0,0,0-.00251,2.82246h0a1.99755,1.99755,0,0,0,2.8275.00252l9.855-9.855L66.94124,41.63a2,2,0,0,0,.00249-2.83094Z" transform="translate(-12.47047 -10)"/></svg>