<svg id="Layer_1" data-name="Layer 1" xmlns="http://www.w3.org/2000/svg" viewBox="0 0 65 64.36325"><defs><style>.cls-1{fill:none;stroke:#000;stroke-miterlimit:10;stroke-width:4px;}</style></defs><circle class="cls-1" cx="32.5" cy="18.08587" r="16.08587"/><path d="M11.83329,69.015V67.63614A16.54547,16.54547,0,0,1,28.37876,51.09067H51.41737A16.54546,16.54546,0,0,1,67.96283,67.63614v1.7071a1.8384,1.8384,0,0,0,1.83839,1.83839h.86039A1.83839,1.83839,0,0,0,72.5,69.34324V67.97651A21.14143,21.14143,0,0,0,51.35857,46.83508H28.64143A21.14143,21.14143,0,0,0,7.5,67.97651V69.015a2.16664,2.16664,0,0,0,2.16664,2.16665h0A2.16664,2.16664,0,0,0,11.83329,69.015Z" transform="translate(-7.5 -6.81837)"/></svg>