<?xml version="1.0" encoding="UTF-8"?>
<svg id="Layer_1" data-name="Layer 1" xmlns="http://www.w3.org/2000/svg" viewBox="0 0 32.01 32.01">
  <path d="m3.42,31.42C11.61,23.23,19.8,15.03,27.99,6.84c1.14-1.14,2.28-2.28,3.43-3.43,1.82-1.82-1.01-4.65-2.83-2.83C20.4,8.78,12.21,16.97,4.01,25.16l-3.43,3.43c-1.82,1.82,1.01,4.65,2.83,2.83h0Z"/>
  <path d="m31.42,28.59C23.23,20.4,15.03,12.21,6.84,4.01L3.42.59C1.59-1.23-1.23,1.59.59,3.42c8.19,8.19,16.38,16.38,24.57,24.57l3.43,3.43c1.82,1.82,4.65-1.01,2.83-2.83h0Z"/>
</svg>