<?xml version="1.0" encoding="UTF-8"?>
<svg id="Layer_1" data-name="Layer 1" xmlns="http://www.w3.org/2000/svg" viewBox="0 0 60 60.02">
  <defs>
    <style>
      .cls-1 {
        fill: none;
        stroke: #000;
        stroke-miterlimit: 10;
        stroke-width: 4px;
      }
    </style>
  </defs>
  <path class="cls-1" d="m44.1,35.77c-12.16-1.24-21.01-12.1-19.76-24.26.29-2.86,1.14-5.64,2.5-8.18.24-.44.08-.98-.36-1.22-.17-.09-.37-.13-.56-.1C10.54,4.36-.02,18.73,2.33,34.11c2.35,15.38,16.72,25.94,32.1,23.59,12.11-1.85,21.64-11.33,23.56-23.43.08-.49-.26-.95-.75-1.03-.19-.03-.39,0-.56.1-3.86,2.04-8.23,2.89-12.57,2.44Z"/>
</svg>