<svg id="Layer_1" data-name="Layer 1" xmlns="http://www.w3.org/2000/svg" viewBox="0 0 69.62998 72"><defs><style>.cls-1{stroke:#000;stroke-miterlimit:10;stroke-width:4px;}</style></defs><path class="cls-1" d="M70.85481,33.69367,47.25943,9.21351a10.50083,10.50083,0,0,0-15.12117,0L9.14515,33.06887A7.0005,7.0005,0,0,0,7.185,37.927V65a9,9,0,0,0,9,9h9.2596a3.50026,3.50026,0,0,0,3.50027-3.50027V60.71942A6.12547,6.12547,0,0,1,35.07035,54.594h9.62574a6.12547,6.12547,0,0,1,6.12547,6.12547v9.78031A3.50026,3.50026,0,0,0,54.32183,74H63.815a9,9,0,0,0,9-9V38.55193A7.00062,7.00062,0,0,0,70.85481,33.69367Z" transform="translate(-5.18501 -4)"/></svg>