<?xml version="1.0" encoding="UTF-8"?>
<svg id="Layer_1" data-name="Layer 1" xmlns="http://www.w3.org/2000/svg" viewBox="0 0 59.96 59.96">
  <defs>
    <style>
      .cls-1 {
        stroke-width: 4px;
      }

      .cls-1, .cls-2 {
        fill: none;
        stroke: #000;
        stroke-miterlimit: 10;
      }

      .cls-2 {
        stroke-width: 3px;
      }
    </style>
  </defs>
  <rect class="cls-1" x="2" y="2" width="55.96" height="55.96" rx="15" ry="15"/>
  <g>
    <g>
      <path d="m25.06,23.18v5.21c0,.22.11.42.3.53l4.26,2.58c.2.12.45.12.65,0l4.26-2.58c.19-.11.3-.32.3-.53v-5.21c0-.22-.11-.42-.3-.53l-4.26-2.58c-.2-.12-.45-.12-.65,0l-4.26,2.58c-.19.11-.3.32-.3.53Z"/>
      <path d="m39.53,16.82s-.05.07-.08.11l-.09.09-2.8,2.69-.31.3c-.2.2-.51.23-.75.08l-.37-.22-3.03-1.83-.58-.36c-.19-.11-.3-.31-.3-.53v-4.19c0-.36.27-.65.62-.67.08.01.16.02.26.04,0,0,.01,0,.02,0,2.69.43,5.19,1.67,7.16,3.56l.07.07.17.17c.14.21.15.48.02.71Z"/>
      <path d="m20.36,16.82s.05.07.08.11l.09.09,2.8,2.69.31.3c.2.2.51.23.75.08l.37-.22,3.03-1.83.58-.36c.19-.11.3-.31.3-.53v-4.19c0-.36-.27-.65-.62-.67-.08.01-.16.02-.26.04,0,0-.01,0-.02,0-2.69.43-5.19,1.67-7.16,3.56l-.07.07-.17.17c-.14.21-.15.48-.02.71Z"/>
      <path d="m39.59,34.57s-.05-.07-.08-.11l-.09-.09-2.8-2.69-.31-.3c-.2-.2-.51-.23-.75-.08l-.37.22-3.03,1.83-.58.36c-.19.11-.3.31-.3.53v4.19c0,.36.27.65.62.67.08-.01.16-.02.26-.04,0,0,.01,0,.02,0,2.69-.43,5.19-1.67,7.16-3.56l.07-.07.17-.17c.14-.21.15-.48.02-.71Z"/>
      <path d="m20.42,34.57s.05-.07.08-.11l.09-.09,2.8-2.69.31-.3c.2-.2.51-.23.75-.08l.37.22,3.03,1.83.58.36c.19.11.3.31.3.53v4.19c0,.36-.27.65-.62.67-.08-.01-.16-.02-.26-.04,0,0-.01,0-.02,0-2.69-.43-5.19-1.67-7.16-3.56l-.07-.07-.17-.17c-.14-.21-.15-.48-.02-.71Z"/>
      <path d="m43.48,25.62c0,2.2-.54,4.37-1.58,6.31-.03.06-.07.13-.1.19-.17.3-.55.41-.85.25-.05-.03-.1-.06-.14-.1l-2.37-2.35-.82-.82c-.12-.12-.18-.28-.18-.44v-6.06c0-.17.07-.33.19-.44l.82-.81,2.38-2.36c.25-.24.64-.24.89,0,.04.04.08.09.1.14.03.06.07.13.1.19,1.03,1.94,1.57,4.1,1.57,6.3Z"/>
      <path d="m16.48,25.68c0,2.2.54,4.37,1.58,6.31.03.06.07.13.1.19.17.3.55.41.85.25.05-.03.1-.06.14-.1l2.37-2.35.82-.82c.12-.12.18-.28.18-.44v-6.06c0-.17-.07-.33-.19-.44l-.82-.81-2.38-2.36c-.25-.24-.64-.24-.89,0-.04.04-.08.09-.1.14-.03.06-.07.13-.1.19-1.03,1.94-1.57,4.1-1.57,6.3Z"/>
    </g>
    <path class="cls-2" d="m25.82,37.16l-1.78,3.38c-.45.86.02,2.02.83,2.02h10.05c.83,0,1.3-1.24.79-2.09l-2.01-3.3"/>
    <path class="cls-2" d="m17.66,46.69v-2.14c0-1.1.9-2,2-2h20.64c1.1,0,2,.9,2,2v2.14"/>
    <path d="m14.07,49.19h31.82c1.93,0,1.93-3,0-3H14.07c-1.93,0-1.93,3,0,3h0Z"/>
  </g>
</svg>