<?xml version="1.0" encoding="UTF-8"?>
<svg id="Layer_1" data-name="Layer 1" xmlns="http://www.w3.org/2000/svg" viewBox="0 0 58.75 58.78">
  <defs>
    <style>
      .cls-1 {
        fill: none;
        stroke-width: 4px;
      }

      .cls-1, .cls-2 {
        stroke: #000;
        stroke-miterlimit: 10;
      }

      .cls-2 {
        stroke-width: .75px;
      }
    </style>
  </defs>
  <circle class="cls-1" cx="29.38" cy="29.39" r="10.5"/>
  <path class="cls-2" d="m29.37.38h0c.93,0,1.68.75,1.68,1.68v7.57c0,.93-.75,1.68-1.68,1.68h0c-.93,0-1.68-.75-1.68-1.68V2.05c0-.93.75-1.68,1.68-1.68Z"/>
  <path class="cls-2" d="m29.37,47.48h0c.93,0,1.68.75,1.68,1.68v7.57c0,.93-.75,1.68-1.68,1.68h0c-.93,0-1.68-.75-1.68-1.68v-7.57c0-.93.75-1.68,1.68-1.68Z"/>
  <path class="cls-2" d="m47.45,29.4h0c0-.93.75-1.68,1.68-1.68h7.57c.93,0,1.68.75,1.68,1.68h0c0,.93-.75,1.68-1.68,1.68h-7.57c-.93,0-1.68-.75-1.68-1.68Z"/>
  <path class="cls-2" d="m.38,29.4H.38c0-.93.75-1.68,1.68-1.68h7.57c.93,0,1.68.75,1.68,1.68h0c0,.93-.75,1.68-1.68,1.68H2.05c-.93,0-1.68-.75-1.68-1.68Z"/>
  <path class="cls-2" d="m16.76,16.43l-.38.38c-.64.55-1.6.48-2.15-.16l-5.42-5.42c-.63-.55-.7-1.51-.16-2.15l.38-.38c.64-.55,1.6-.48,2.15.16l5.42,5.42c.63.55.7,1.51.16,2.15Z"/>
  <path class="cls-2" d="m41.92,16.44l.38.38c.64.55,1.6.48,2.15-.16l5.42-5.42c.63-.55.7-1.51.16-2.15l-.38-.38c-.64-.55-1.6-.48-2.15.16l-5.42,5.42c-.63.55-.7,1.51-.16,2.15Z"/>
  <path class="cls-2" d="m50.05,49.71l-.38.38c-.64.55-1.6.48-2.15-.16l-5.42-5.42c-.63-.55-.7-1.51-.16-2.15l.38-.38c.64-.55,1.6-.48,2.15.16l5.42,5.42c.63.55.7,1.51.16,2.15Z"/>
  <path class="cls-2" d="m8.69,49.68l.38.38c.64.55,1.6.48,2.15-.16l5.42-5.42c.63-.55.7-1.51.16-2.15l-.38-.38c-.64-.55-1.6-.48-2.15.16l-5.42,5.42c-.63.55-.7,1.51-.16,2.15Z"/>
</svg>