<?xml version="1.0" encoding="UTF-8"?>
<svg id="Layer_1" data-name="Layer 1" xmlns="http://www.w3.org/2000/svg" viewBox="0 0 48 52.22">
  <defs>
    <style>
      .cls-1 {
        stroke: #000;
        stroke-miterlimit: 10;
      }
    </style>
  </defs>
  <path class="cls-1" d="m15.78,2.21h0c0-.94-.76-1.71-1.71-1.71H3.91C2.03.5.5,2.03.5,3.91h0v44.39h0c0,1.89,1.53,3.41,3.41,3.41h10.15c.94,0,1.71-.76,1.71-1.71h0c0-.94-.76-1.71-1.71-1.71H4.77c-.47,0-.85-.38-.85-.85V4.77c0-.47.38-.85.85-.85h9.3c.94,0,1.71-.76,1.71-1.71Z"/>
  <path class="cls-1" d="m45.79,23.88l-8.41-8.41c-.67-.67-1.75-.67-2.41,0,0,0,0,0,0,0h0c-.66.67-.66,1.74,0,2.41l6.6,6.6s.03.09,0,.12c-.02.02-.04.02-.06.02h-25.01c-.94,0-1.71.76-1.71,1.71h0c0,.94.76,1.71,1.71,1.71h24.93s.09.04.09.09c0,.02,0,.04-.03.06l-6.52,6.52c-.67.67-.67,1.74,0,2.41h0c.66.67,1.74.67,2.41,0,0,0,0,0,0,0l8.41-8.41,1.2-1.2c.67-.67.67-1.75,0-2.41,0,0,0,0,0,0l-1.21-1.21Z"/>
</svg>