<?xml version="1.0" encoding="UTF-8"?>
<svg id="Layer_1" data-name="Layer 1" xmlns="http://www.w3.org/2000/svg" viewBox="0 0 59.96 59.96">
  <defs>
    <style>
      .cls-1 {
        fill: none;
        stroke: #000;
        stroke-miterlimit: 10;
        stroke-width: 4px;
      }
    </style>
  </defs>
  <g>
    <path d="m23.61,26.73v6.76c0,.28.15.55.39.69l5.53,3.35c.26.16.58.16.84,0l5.53-3.35c.24-.15.39-.41.39-.69v-6.76c0-.28-.15-.55-.39-.69l-5.53-3.35c-.26-.16-.58-.16-.84,0l-5.53,3.35c-.24.15-.39.41-.39.69Z"/>
    <path d="m42.35,18.48s-.07.1-.11.14l-.11.11-3.63,3.49-.4.39c-.26.25-.67.3-.98.11l-.49-.29-3.93-2.38-.75-.46c-.24-.14-.39-.41-.39-.69v-5.44c0-.46.35-.85.81-.87.11.02.2.03.33.06,0,0,.02,0,.03,0,3.49.56,6.72,2.17,9.28,4.61l.09.09.22.22c.18.28.19.63.03.91Z"/>
    <path d="m17.51,18.48s.07.1.11.14l.11.11,3.63,3.49.4.39c.26.25.67.3.98.11l.49-.29,3.93-2.38.75-.46c.24-.14.39-.41.39-.69v-5.44c0-.46-.35-.85-.81-.87-.11.02-.2.03-.33.06,0,0-.02,0-.03,0-3.49.56-6.72,2.17-9.28,4.61l-.09.09-.22.22c-.18.28-.19.63-.03.91Z"/>
    <path d="m42.43,41.49s-.07-.1-.11-.14l-.11-.11-3.63-3.49-.4-.39c-.26-.25-.67-.3-.98-.11l-.49.29-3.93,2.38-.75.46c-.24.14-.39.41-.39.69v5.44c0,.46.35.85.81.87.11-.02.2-.03.33-.06,0,0,.02,0,.03,0,3.49-.56,6.72-2.17,9.28-4.61l.09-.09.22-.22c.18-.28.19-.63.03-.91Z"/>
    <path d="m17.59,41.49s.07-.1.11-.14l.11-.11,3.63-3.49.4-.39c.26-.25.67-.3.98-.11l.49.29,3.93,2.38.75.46c.24.14.39.41.39.69v5.44c0,.46-.35.85-.81.87-.11-.02-.2-.03-.33-.06,0,0-.02,0-.03,0-3.49-.56-6.72-2.17-9.28-4.61l-.09-.09-.22-.22c-.18-.28-.19-.63-.03-.91Z"/>
    <path d="m47.48,29.88c0,2.86-.7,5.67-2.05,8.19-.04.08-.09.17-.13.25-.22.39-.71.54-1.1.32-.07-.04-.13-.08-.18-.14l-3.07-3.05-1.06-1.06c-.15-.15-.24-.36-.24-.57v-7.86c0-.22.09-.42.24-.58l1.06-1.05,3.09-3.06c.32-.32.83-.31,1.15,0,.05.05.1.11.14.18.04.08.09.17.13.25,1.34,2.52,2.03,5.32,2.03,8.17Z"/>
    <path d="m12.48,29.96c0,2.86.7,5.67,2.05,8.19.04.08.09.17.13.25.22.39.71.54,1.1.32.07-.04.13-.08.18-.14l3.07-3.05,1.06-1.06c.15-.15.24-.36.24-.57v-7.86c0-.22-.09-.42-.24-.58l-1.06-1.05-3.09-3.06c-.32-.32-.83-.31-1.15,0-.05.05-.1.11-.14.18-.04.08-.09.17-.13.25-1.34,2.52-2.03,5.32-2.03,8.17Z"/>
  </g>
  <rect class="cls-1" x="2" y="2" width="55.96" height="55.96" rx="15" ry="15"/>
</svg>