<?xml version="1.0" encoding="UTF-8"?>
<svg id="Layer_1" data-name="Layer 1" xmlns="http://www.w3.org/2000/svg" viewBox="0 0 60 60">
  <defs>
    <style>
      .cls-1 {
        fill: none;
        stroke: #000;
        stroke-miterlimit: 10;
        stroke-width: 4px;
      }
    </style>
  </defs>
  <path class="cls-1" d="m55.23,26.09l-4-.89c-.25-.06-.45-.25-.52-.49-.44-1.52-1.05-2.98-1.82-4.36-.13-.22-.12-.5.02-.72l2.38-3.75c.89-1.39.68-3.22-.49-4.38l-1.5-1.49c-1.17-1.17-3-1.37-4.4-.49l-3.82,2.41c-.22.14-.49.14-.71.02-1.4-.75-2.88-1.35-4.41-1.77-.25-.07-.44-.27-.5-.52l-1.11-4.91c-.37-1.61-1.8-2.76-3.45-2.76h-2.12c-1.65,0-3.09,1.14-3.45,2.76l-1.17,5.21c-.06.24-.23.44-.47.51-1.1.36-2.17.81-3.2,1.35-.22.12-.49.11-.7-.03l-4.39-2.77c-1.4-.88-3.22-.68-4.4.49l-1.5,1.49c-1.17,1.16-1.37,2.99-.49,4.38l2.7,4.24c.14.22.14.49.02.72-.74,1.33-1.34,2.74-1.77,4.21-.07.24-.27.43-.52.49l-4.68,1.04c-1.61.36-2.76,1.79-2.77,3.44v2.11c0,1.65,1.15,3.08,2.77,3.44l4.68,1.04c.25.06.45.24.52.49.41,1.38.96,2.71,1.65,3.98.12.22.11.49-.02.71l-2.29,3.6c-.89,1.39-.68,3.22.49,4.38l1.5,1.49c1.17,1.17,3,1.37,4.4.49l3.51-2.22c.22-.14.5-.14.72-.02,1.44.81,2.96,1.44,4.54,1.9.25.07.44.27.5.52l.86,3.8c.37,1.61,1.8,2.76,3.45,2.76h2.12c1.65,0,3.09-1.14,3.45-2.76l.86-3.8c.06-.25.25-.45.5-.52,1.5-.43,2.95-1.03,4.32-1.77.22-.12.5-.12.72.02l3.09,1.95c1.4.88,3.22.68,4.4-.49l1.5-1.49c1.17-1.16,1.37-2.99.49-4.38l-1.9-2.98c-.14-.22-.14-.5-.01-.72.83-1.44,1.48-2.98,1.94-4.58.07-.25.27-.44.52-.49l4-.89c1.61-.36,2.76-1.79,2.77-3.44v-2.11c0-1.65-1.15-3.08-2.77-3.44Zm-25.23,14.68c-5.95,0-10.77-4.82-10.77-10.77s4.82-10.77,10.77-10.77,10.77,4.82,10.77,10.77-4.82,10.77-10.77,10.77h0Z"/>
</svg>