<svg id="Layer_1" data-name="Layer 1" xmlns="http://www.w3.org/2000/svg" viewBox="0 0 69 69"><defs><style>.cls-1{fill:none;stroke:#000;stroke-miterlimit:10;stroke-width:4px;}</style></defs><path class="cls-1" d="M69.29059,35.46179l-4.642-1.037a.8146.8146,0,0,1-.60339-.572,24.34939,24.34939,0,0,0-2.1117-5.05786.80929.80929,0,0,1,.02051-.83075l2.76788-4.35217a4.08232,4.08232,0,0,0-.56518-5.08563l-1.73938-1.73316a4.11938,4.11938,0,0,0-5.10394-.56311l-4.438,2.80219a.81687.81687,0,0,1-.8255.0249A24.52924,24.52924,0,0,0,46.92914,17.003a.81433.81433,0,0,1-.58386-.60388l-1.283-5.70123A4.105,4.105,0,0,0,41.05365,7.5h-2.46A4.105,4.105,0,0,0,34.585,10.69788l-1.36145,6.05a.81506.81506,0,0,1-.54663.59375,24.54381,24.54381,0,0,0-3.71869,1.56433.8186.8186,0,0,1-.81738-.03l-5.09125-3.21473a4.11938,4.11938,0,0,0-5.10406.56318l-1.73932,1.73315a4.08234,4.08234,0,0,0-.56513,5.08563L18.77448,27.97a.81.81,0,0,1,.02056.83106,24.3566,24.3566,0,0,0-2.05621,4.88171.81509.81509,0,0,1-.60217.56659l-5.42719,1.21246A4.09681,4.09681,0,0,0,7.5,39.45612v2.45105a4.09667,4.09667,0,0,0,3.20947,3.9942l5.42877,1.21283a.81225.81225,0,0,1,.60016.56488,24.34845,24.34845,0,0,0,1.91053,4.618.80629.80629,0,0,1-.02552.819L15.963,57.29919a4.08244,4.08244,0,0,0,.56519,5.08564L18.26752,64.118a4.11947,4.11947,0,0,0,5.104.56311l4.07666-2.5741a.81649.81649,0,0,1,.83807-.01757,24.54233,24.54233,0,0,0,5.27442,2.20086.81348.81348,0,0,1,.57526.6012l.99249,4.41064A4.10507,4.10507,0,0,0,39.13721,72.5h2.4599a4.10505,4.10505,0,0,0,4.00872-3.19788l.99256-4.41095a.81439.81439,0,0,1,.57568-.6018,24.532,24.532,0,0,0,5.01465-2.05945.81744.81744,0,0,1,.83045.02234l3.581,2.26111a4.11937,4.11937,0,0,0,5.104-.56311L63.4436,62.2171a4.08225,4.08225,0,0,0,.56519-5.08563l-2.20325-3.46423a.80828.80828,0,0,1-.01556-.83838A24.363,24.363,0,0,0,64.04541,47.51a.81343.81343,0,0,1,.60278-.57141l4.6424-1.03717A4.09667,4.09667,0,0,0,72.5,41.9071v-2.451A4.09674,4.09674,0,0,0,69.29059,35.46179ZM40,52.5A12.5,12.5,0,1,1,52.5,40,12.5,12.5,0,0,1,40,52.5Z" transform="translate(-5.5 -5.5)"/></svg>