<?xml version="1.0" encoding="UTF-8"?>
<svg id="Layer_1" data-name="Layer 1" xmlns="http://www.w3.org/2000/svg" viewBox="0 0 59.96 59.96">
  <defs>
    <style>
      .cls-1 {
        fill: none;
        stroke: #000;
        stroke-miterlimit: 10;
        stroke-width: 4px;
      }
    </style>
  </defs>
  <g>
    <circle class="cls-1" cx="29.97" cy="24.2" r="8.99"/>
    <path d="m49.98,50.75c-.03-2.03-.1-4.02-.83-5.95-.89-2.33-2.37-4.32-4.35-5.83-2.83-2.15-6.05-2.62-9.49-2.62h-9.66c-3.21,0-6.27.05-9.17,1.71-2.35,1.35-4.28,3.47-5.37,5.95-.96,2.18-1.13,4.38-1.13,6.73,0,2.57,4,2.58,4,0,0-1.57,0-3.07.55-4.57.63-1.74,1.86-3.3,3.41-4.32,2.23-1.46,4.58-1.5,7.13-1.5h8.81c2.25,0,4.58-.2,6.7.72,1.98.86,3.59,2.44,4.53,4.37.82,1.7.85,3.46.88,5.3.04,2.57,4.04,2.58,4,0h0Z"/>
  </g>
  <circle class="cls-1" cx="29.98" cy="29.98" r="27.98"/>
</svg>