<?xml version="1.0" encoding="UTF-8"?>
<svg id="Layer_1" data-name="Layer 1" xmlns="http://www.w3.org/2000/svg" viewBox="0 0 60 59.21">
  <defs>
    <style>
      .cls-1 {
        fill: none;
        stroke: #000;
        stroke-miterlimit: 10;
        stroke-width: 4px;
      }
    </style>
  </defs>
  <circle class="cls-1" cx="29.98" cy="15.98" r="13.98"/>
  <path d="m4,57.28c0-2.56.04-4.98.9-7.43,1.02-2.89,3.06-5.5,5.6-7.21s5.45-2.61,8.51-2.63c1.08,0,2.15,0,3.23,0h13.89c3.74,0,7.54-.29,11.04,1.33,3.29,1.52,5.94,4.17,7.46,7.46,1.26,2.73,1.32,5.55,1.37,8.49.04,2.57,4.04,2.58,4,0-.05-2.94-.11-5.85-1.14-8.65-1.3-3.56-3.56-6.59-6.59-8.87s-6.57-3.5-10.26-3.72c-1.28-.08-2.57-.03-3.85-.03h-14.75c-4.72,0-9.22-.02-13.53,2.32-3.54,1.92-6.5,5.07-8.15,8.74C.26,50.37,0,53.71,0,57.28c0,2.57,4,2.58,4,0h0Z"/>
</svg>