<?xml version="1.0" encoding="UTF-8"?>
<svg id="Layer_1" data-name="Layer 1" xmlns="http://www.w3.org/2000/svg" viewBox="0 0 59.97 59.34">
  <defs>
    <style>
      .cls-1 {
        stroke: #000;
        stroke-miterlimit: 10;
        stroke-width: 4px;
      }
    </style>
  </defs>
  <circle class="cls-1" cx="29.97" cy="15.98" r="13.98"/>
  <g>
    <path d="m55.96,57.28c1.12,0,2.02-.91,2-2.03v-.25c0-9.39-7.62-17-17-17h-21.96c-9.39,0-17,7.61-17,17v.28c0,1.1.9,2,2,2h51.97Z"/>
    <path d="m55.96,59.28c2.25-.18,3.91-1.72,4-4.03.07-1.72-.21-3.53-.65-5.19-.93-3.49-2.93-6.76-5.63-9.16s-6.03-4.07-9.6-4.62c-1.66-.26-3.29-.27-4.96-.27h-14.21c-4.1,0-8.37-.33-12.29,1.1C5.57,39.68.65,46.13.05,53.61c-.15,1.9,0,3.87,1.75,5.01.71.46,1.52.63,2.35.66s1.61,0,2.41,0h26.65c7.44,0,14.91.15,22.35,0,.13,0,.26,0,.4,0,2.57,0,2.58-4,0-4H11.74c-2.42,0-4.88-.12-7.3,0-.13,0-.31.03-.44,0,.06.01,0-.03-.01-.07-.03-.75.02-1.54.13-2.29.42-3.04,1.82-5.95,3.93-8.18s4.96-3.84,8.05-4.47c1.43-.29,2.87-.27,4.32-.27h12.88c3.2,0,6.63-.32,9.81.14,6.33.91,11.39,5.89,12.61,12.13.14.73.21,1.46.23,2.2,0,.22.08.56.01.77-.04.14-.06.04,0,.03-2.55.21-2.57,4.21,0,4Z"/>
  </g>
</svg>